<?xml version="1.0" encoding="UTF-8"?>
<svg xmlns="http://www.w3.org/2000/svg" version="1.0"
  width="340" height="510" viewBox="0 0 340 510"
  preserveAspectRatio="xMidYMid meet" aria-label="Castalia logo">
<metadata>Traced from Castalia logo PNG (potrace 1.16), tower + flame</metadata>
<g transform="translate(0,510) scale(0.1,-0.1)" stroke="none">
<path fill="#F0A830" d="M1657 3943 c4 -16 7 -59 7 -96 -1 -60 -7 -79 -54 -175 -34 -70 -55
-126 -59 -162 l-7 -55 -18 34 c-13 24 -17 50 -14 92 2 33 0 59 -3 59 -10 0
-57 -71 -74 -112 -8 -21 -15 -66 -15 -100 0 -131 92 -246 219 -273 31 -7 33
-5 26 11 -24 58 -36 123 -30 174 6 56 50 168 62 157 12 -13 55 -123 65 -168
10 -44 0 -97 -29 -168 -4 -10 2 -12 28 -6 90 20 185 107 210 192 30 105 6 236
-59 313 l-21 25 -1 -60 c0 -42 -6 -70 -20 -92 -11 -18 -22 -33 -26 -33 -3 0
-3 30 0 68 13 130 -33 261 -124 350 -60 59 -74 64 -63 25z"/>
<path fill="#000000" d="M1497 3103 c-2 -4 -7 -25 -11 -45 -6 -35 -10 -38 -40 -38 -31 0 -34
3 -40 35 -4 19 -11 37 -16 40 -10 6 -129 -11 -138 -20 -3 -3 4 -58 15 -123 20
-106 25 -119 52 -143 17 -14 31 -31 31 -37 0 -7 11 -18 25 -24 29 -13 30 -17
15 -223 -13 -171 -43 -399 -76 -562 -13 -68 -24 -125 -24 -128 0 -3 -10 -5
-22 -5 -66 -1 -70 -7 -83 -120 l-6 -55 -105 -49 c-58 -27 -109 -57 -114 -65
-4 -9 -11 -47 -15 -86 -4 -38 -9 -78 -11 -88 -2 -10 2 -20 9 -22 18 -6 143
-14 322 -20 298 -12 409 -12 675 -4 146 4 305 9 353 10 49 1 109 6 134 11 43
10 45 11 39 42 -3 17 -8 56 -12 86 -4 30 -10 62 -15 71 -4 9 -55 38 -113 64
-112 52 -115 56 -116 130 0 72 -8 83 -56 91 -24 3 -44 7 -44 9 0 1 -11 57 -25
123 -43 214 -85 570 -85 728 0 42 4 54 18 59 11 3 24 17 30 30 7 14 22 30 35
36 20 9 26 26 45 123 12 62 22 120 22 128 0 17 -15 22 -101 34 l-47 6 -7 -41
c-7 -40 -8 -41 -46 -41 l-39 0 0 45 0 45 -80 0 -80 0 0 -40 0 -40 -49 0 -50 0
-3 38 -3 37 -72 3 c-39 2 -73 -1 -76 -5z"/>
</g>
</svg>
